<?xml version="1.0" standalone="no"?>
<!DOCTYPE svg PUBLIC "-//W3C//DTD SVG 20010904//EN"
 "http://www.w3.org/TR/2001/REC-SVG-20010904/DTD/svg10.dtd">
<svg version="1.0" xmlns="http://www.w3.org/2000/svg"
 width="500.000000pt" height="500.000000pt" viewBox="0 0 500.000000 500.000000"
 preserveAspectRatio="xMidYMid meet">
<metadata>
Created by potrace 1.14, written by Peter Selinger 2001-2017
</metadata>
<g transform="translate(0.000000,500.000000) scale(0.100000,-0.100000)"
fill="#000000" stroke="none">
<path d="M2525 4981 c-3 -6 -14 -8 -25 -6 -11 2 -27 -3 -35 -11 -8 -9 -15 -11
-15 -7 0 10 -56 9 -82 -2 -15 -6 -42 -12 -61 -14 -5 -1 -6 -4 -4 -9 3 -4 -9
-8 -26 -9 -50 -4 -57 -6 -57 -15 0 -5 -4 -6 -10 -3 -5 3 -10 2 -10 -4 0 -6 -7
-8 -15 -5 -8 4 -27 -2 -41 -11 -17 -11 -24 -12 -18 -4 5 9 -2 8 -19 -4 -15 -9
-27 -14 -27 -10 0 3 -11 -4 -24 -16 -14 -13 -29 -20 -35 -16 -6 3 -11 1 -11
-6 0 -8 -4 -8 -15 1 -12 10 -15 10 -15 -4 0 -9 -3 -15 -7 -15 -20 3 -34 -2
-29 -10 3 -5 -4 -11 -15 -14 -13 -4 -18 -10 -13 -18 4 -7 3 -10 -4 -5 -6 3
-13 2 -17 -4 -3 -5 -19 -10 -35 -10 -16 0 -32 -5 -36 -12 -5 -7 0 -9 14 -6 16
4 20 1 19 -13 -1 -11 -5 -19 -9 -19 -11 0 -106 -94 -110 -110 -4 -17 -60 -76
-70 -72 -5 1 -8 -5 -8 -13 0 -8 -7 -15 -16 -15 -10 0 -14 -5 -10 -16 3 -8 2
-13 -3 -10 -13 9 -20 -41 -7 -55 8 -9 8 -10 -1 -5 -15 9 -35 -28 -31 -58 1
-13 -3 -31 -11 -40 -7 -9 -10 -16 -5 -16 5 0 3 -4 -4 -8 -7 -5 -14 -22 -15
-38 -1 -16 -5 -31 -9 -34 -4 -3 -10 -17 -12 -30 -2 -14 -5 -26 -7 -27 -1 -2
-2 -6 -3 -10 -1 -5 -5 -15 -11 -23 -5 -8 -8 -29 -7 -48 2 -19 -2 -39 -7 -46
-5 -6 -9 -57 -8 -114 1 -56 0 -102 -3 -102 -3 0 -3 -36 0 -80 3 -44 3 -80 0
-80 -10 0 -5 -95 5 -102 6 -5 5 -8 -3 -8 -7 0 -10 -5 -7 -10 4 -6 3 -9 -2 -8
-4 2 -9 -1 -10 -6 0 -5 -8 -13 -17 -18 -9 -5 -14 -13 -11 -19 4 -5 1 -9 -6 -9
-7 0 -8 -5 -3 -12 10 -14 10 -35 1 -58 -8 -18 -17 -69 -22 -127 -1 -23 -6 -46
-9 -52 -4 -5 3 -16 14 -24 11 -7 17 -17 14 -20 -4 -4 -1 -13 5 -21 7 -8 10
-20 7 -25 -4 -5 -1 -13 5 -16 5 -4 8 -14 4 -23 -3 -8 -1 -18 5 -22 5 -3 11
-25 12 -48 1 -23 6 -42 12 -42 6 0 5 -4 -3 -9 -11 -7 -10 -13 7 -32 16 -17 19
-26 11 -36 -6 -7 -9 -19 -6 -26 3 -8 1 -20 -3 -28 -6 -8 -4 -16 3 -21 9 -6 9
-8 -1 -8 -9 0 -10 -5 -4 -17 5 -10 8 -27 6 -38 -1 -10 2 -25 8 -32 6 -7 7 -13
2 -13 -4 0 1 -7 12 -16 10 -8 12 -12 4 -8 -11 6 -10 2 3 -13 9 -11 14 -23 10
-26 -3 -4 -2 -7 4 -7 6 0 10 -17 8 -40 -1 -21 4 -51 11 -65 7 -14 9 -23 4 -20
-11 7 -14 -8 -3 -19 7 -6 11 -24 15 -58 1 -10 7 -18 13 -18 5 0 4 -4 -4 -9 -9
-6 -10 -11 -2 -15 6 -4 11 -15 11 -25 0 -10 7 -33 17 -51 9 -19 17 -45 19 -59
1 -14 3 -27 4 -28 1 -2 3 -9 4 -15 1 -7 7 -12 12 -11 7 1 9 -9 6 -24 -3 -18
-1 -24 7 -19 7 5 11 -2 11 -18 0 -14 5 -26 10 -26 6 0 10 -14 10 -30 0 -23
-10 -40 -40 -67 -21 -20 -37 -40 -35 -44 3 -4 -2 -10 -11 -13 -8 -3 -12 -10
-9 -16 3 -5 1 -10 -5 -10 -6 0 -15 -11 -20 -25 -5 -14 -14 -25 -20 -25 -6 0
-8 -4 -5 -10 3 -5 1 -10 -5 -10 -6 0 -8 -4 -5 -10 3 -5 1 -10 -5 -10 -6 0 -9
-4 -6 -8 3 -5 -4 -14 -14 -22 -10 -8 -17 -17 -14 -22 3 -4 0 -8 -6 -8 -6 0 -9
-4 -5 -9 3 -5 1 -12 -5 -16 -5 -3 -10 -14 -10 -24 0 -17 -4 -19 -55 -22 -18
-1 -25 -7 -25 -21 0 -10 -4 -17 -9 -14 -5 3 -12 -1 -15 -10 -4 -9 -9 -14 -13
-11 -3 3 -20 0 -37 -7 -17 -7 -56 -12 -86 -11 -50 2 -107 -12 -152 -36 -12 -6
-18 -6 -18 2 0 8 -4 8 -12 2 -20 -16 -68 -22 -68 -9 0 7 -3 7 -8 1 -4 -5 -14
-10 -22 -10 -8 0 -18 5 -22 10 -5 6 -8 5 -8 -2 0 -7 -7 -13 -15 -13 -8 0 -15
-4 -15 -10 0 -5 -7 -7 -15 -4 -8 4 -15 1 -15 -4 0 -11 -38 -28 -52 -24 -5 1
-8 -3 -8 -10 0 -6 -3 -8 -7 -5 -3 4 -13 1 -21 -6 -13 -9 -14 -9 -8 1 4 6 3 12
-3 12 -5 0 -12 -4 -16 -9 -3 -5 -43 -9 -90 -8 -47 1 -85 0 -85 -3 0 -10 -55
-5 -62 5 -5 6 -8 5 -8 -2 0 -7 -7 -10 -15 -7 -8 4 -15 1 -15 -7 0 -7 -3 -10
-6 -6 -4 3 -21 0 -38 -7 -17 -7 -44 -12 -59 -10 -16 1 -27 -2 -27 -9 0 -7 -4
-6 -10 3 -9 13 -10 13 -10 0 0 -13 -1 -13 -10 0 -6 9 -10 11 -10 3 0 -7 -7
-10 -15 -7 -8 4 -15 2 -15 -3 0 -11 -45 -11 -56 0 -4 4 -18 -5 -31 -19 -12
-14 -28 -22 -33 -19 -6 3 -10 -1 -10 -9 0 -9 -7 -16 -15 -16 -9 0 -18 -7 -21
-15 -4 -8 -10 -13 -14 -10 -4 2 -23 -10 -41 -28 -19 -17 -37 -31 -41 -29 -5 1
-8 -300 -8 -668 l0 -670 2500 0 2500 0 0 660 0 661 -32 34 c-66 69 -78 84 -78
95 0 6 -4 9 -9 6 -5 -4 -11 -3 -13 2 -1 4 -18 19 -37 32 -20 13 -31 18 -27 9
4 -7 -2 -2 -14 14 -12 15 -26 24 -31 21 -6 -3 -16 0 -24 6 -8 7 -15 9 -15 4 0
-4 -6 0 -13 11 -10 13 -16 15 -21 6 -6 -9 -11 -9 -22 0 -11 9 -14 9 -14 0 0
-7 -4 -9 -10 -6 -5 3 -10 1 -10 -4 0 -6 -18 -19 -40 -28 -22 -10 -40 -21 -40
-25 0 -16 -63 -7 -91 13 -20 14 -29 16 -29 7 -1 -9 -4 -7 -10 4 -6 10 -20 15
-35 14 -13 -2 -22 1 -19 5 3 5 -4 9 -15 9 -12 0 -21 5 -21 11 0 5 -5 7 -10 4
-6 -3 -13 1 -16 9 -3 9 -15 16 -26 16 -12 0 -16 4 -12 11 4 7 1 10 -7 7 -8 -3
-22 1 -31 10 -10 8 -18 10 -18 4 0 -10 -17 -11 -35 -1 -5 3 -30 5 -55 4 -25
-1 -55 4 -67 11 -16 10 -24 11 -29 3 -5 -8 -10 -6 -16 5 -5 9 -13 14 -18 11
-5 -3 -11 -1 -15 5 -3 5 -15 10 -26 10 -10 0 -19 5 -19 11 0 8 -4 8 -13 0 -10
-8 -17 -7 -25 1 -7 7 -12 9 -12 5 0 -4 -16 0 -36 8 -20 8 -40 12 -45 9 -5 -3
-9 0 -9 6 0 13 -44 33 -86 38 -7 1 -15 13 -18 27 -4 14 -11 23 -16 20 -5 -3
-7 4 -5 15 2 11 0 20 -6 20 -5 0 -9 6 -9 14 0 7 -9 16 -20 19 -13 3 -18 11
-14 20 3 8 -1 21 -8 28 -7 8 -19 27 -26 42 -7 17 -17 25 -24 21 -7 -4 -8 -3
-4 4 4 7 2 12 -3 12 -6 0 -11 7 -11 15 0 8 -10 25 -22 38 -25 25 -33 47 -19
47 7 0 22 44 25 75 1 6 12 32 24 59 13 26 21 55 18 63 -4 9 -2 11 6 7 8 -5 9
-2 5 9 -3 9 -2 19 4 23 6 3 8 13 5 21 -4 9 -2 11 6 7 8 -5 9 -2 5 9 -3 10 -2
17 4 17 6 0 9 8 7 18 -1 9 2 24 7 32 14 22 15 40 3 40 -7 0 -7 4 -1 13 6 6 9
22 8 34 -1 13 3 19 8 16 6 -4 8 0 4 9 -3 9 0 21 6 27 8 8 8 11 -2 11 -11 0
-11 3 0 17 12 14 12 16 -1 9 -8 -4 -6 0 4 8 11 9 17 16 13 16 -4 0 1 9 11 20
19 20 30 100 13 100 -4 0 -8 13 -9 30 -1 37 -10 52 -25 43 -7 -4 -6 1 2 10 8
10 11 20 8 24 -4 3 -3 11 2 17 6 6 11 24 13 38 2 15 7 30 11 34 4 4 7 16 7 26
0 10 5 18 11 18 5 0 8 4 4 9 -3 5 8 37 25 70 17 34 28 66 24 72 -4 7 -3 9 3 6
6 -4 15 5 21 18 9 19 9 25 -1 25 -7 0 -8 3 -2 8 14 10 17 32 4 32 -8 0 -8 5 1
15 9 10 9 15 1 15 -6 0 -11 9 -11 20 0 11 -4 20 -9 20 -5 0 -8 16 -6 35 2 19
0 33 -4 31 -4 -3 -5 8 -3 24 3 21 -1 32 -17 42 -12 7 -21 18 -21 25 0 7 -5 13
-11 13 -5 0 -7 5 -4 10 3 6 3 16 -1 22 -10 16 -11 57 -2 85 4 13 3 25 -4 29
-7 5 -8 3 -3 -6 5 -9 4 -11 -4 -6 -7 5 -9 13 -3 19 18 25 33 69 21 61 -8 -5
-9 -3 -4 6 11 18 15 60 5 60 -12 0 -18 59 -6 64 6 3 5 5 -2 5 -7 1 -10 6 -7
11 10 16 -5 51 -18 43 -7 -4 -6 1 2 11 9 10 11 20 5 24 -10 8 -12 54 -3 62 4
3 2 16 -4 30 -5 14 -9 33 -8 43 1 10 -3 26 -11 35 -11 13 -11 15 2 7 13 -8 13
-6 1 8 -7 9 -11 24 -7 32 3 8 1 15 -4 15 -6 0 -10 7 -10 15 0 8 -4 15 -8 15
-4 0 -8 8 -9 18 -2 29 -8 47 -16 53 -4 3 -9 16 -10 27 -1 12 -5 22 -10 22 -4
0 -5 5 -2 10 3 6 1 10 -4 10 -6 0 -10 3 -9 8 1 4 -7 25 -17 47 -10 22 -17 44
-16 49 1 4 -8 16 -19 26 -12 10 -21 21 -20 25 1 4 -7 18 -19 31 -11 13 -21 26
-21 29 0 3 0 10 0 16 0 5 -4 8 -8 5 -5 -3 -15 6 -22 19 -7 13 -17 22 -22 19
-4 -3 -8 2 -8 10 0 9 -7 16 -16 16 -8 0 -12 5 -9 10 3 6 -1 10 -9 10 -9 0 -16
7 -16 16 0 9 -9 18 -20 21 -10 3 -22 14 -25 24 -4 10 -11 19 -16 19 -5 0 -9 6
-9 14 0 8 -7 13 -16 12 -9 -1 -31 12 -50 31 -19 18 -38 33 -43 33 -5 0 -17 8
-27 18 -10 9 -21 17 -26 17 -5 0 -13 7 -18 15 -5 8 -10 11 -10 6 0 -5 -10 2
-23 15 -54 55 -101 74 -118 47 -7 -10 -9 -10 -9 0 0 6 -7 12 -16 12 -8 0 -12
5 -9 10 4 6 -11 10 -39 10 -25 0 -48 5 -51 10 -3 6 -12 10 -18 10 -7 0 -6 -4
3 -10 8 -5 10 -10 4 -10 -6 0 -17 6 -23 14 -7 8 -25 13 -41 12 -17 -1 -30 3
-30 8 0 6 -4 5 -9 -3 -6 -9 -11 -10 -15 -2 -4 6 -12 8 -19 4 -17 -10 -57 -10
-57 0 0 5 -7 3 -17 -4 -9 -8 -19 -12 -22 -11 -31 18 -40 21 -46 13z"/>
</g>
</svg>
